<svg width="410" height="404" viewBox="0 0 410 404" fill="none" xmlns="http://www.w3.org/2000/svg">
  <g>
    <path d="M399.6 44.6c-4.8-17.8-18.8-31.8-36.6-36.6C340.2 2.2 205 2.2 205 2.2s-135.2 0-158 5.8C29.2 12.8 15.2 26.8 10.4 44.6 4.6 67.4 4.6 101.2 4.6 101.2s0 33.8 5.8 56.6c4.8 17.8 18.8 31.8 36.6 36.6 22.8 5.8 158 5.8 158 5.8s135.2 0 158-5.8c17.8-4.8 31.8-18.8 36.6-36.6 5.8-22.8 5.8-56.6 5.8-56.6s0-33.8-5.8-56.6z" fill="#646CFF"/>
    <path d="M205 2.2v199.2s135.2 0 158-5.8c17.8-4.8 31.8-18.8 36.6-36.6 5.8-22.8 5.8-56.6 5.8-56.6s0-33.8-5.8-56.6c-4.8-17.8-18.8-31.8-36.6-36.6C340.2 2.2 205 2.2 205 2.2z" fill="#747BFF"/>
    <path d="M205 2.2v199.2s-135.2 0-158-5.8c-17.8-4.8-31.8-18.8-36.6-36.6C4.6 135 4.6 101.2 4.6 101.2s0-33.8 5.8-56.6c4.8-17.8 18.8-31.8 36.6-36.6C69.8 2.2 205 2.2 205 2.2z" fill="#A5AFFF"/>
    <path d="M205 2.2v199.2s-135.2 0-158-5.8c-17.8-4.8-31.8-18.8-36.6-36.6C4.6 135 4.6 101.2 4.6 101.2s0-33.8 5.8-56.6c4.8-17.8 18.8-31.8 36.6-36.6C69.8 2.2 205 2.2 205 2.2z" fill="#A5AFFF"/>
    <path d="M205 2.2v199.2s135.2 0 158-5.8c17.8-4.8 31.8-18.8 36.6-36.6 5.8-22.8 5.8-56.6 5.8-56.6s0-33.8-5.8-56.6c-4.8-17.8-18.8-31.8-36.6-36.6C340.2 2.2 205 2.2 205 2.2z" fill="#747BFF"/>
    <path d="M205 2.2v199.2s-135.2 0-158-5.8c-17.8-4.8-31.8-18.8-36.6-36.6C4.6 135 4.6 101.2 4.6 101.2s0-33.8 5.8-56.6c4.8-17.8 18.8-31.8 36.6-36.6C69.8 2.2 205 2.2 205 2.2z" fill="#A5AFFF"/>
    <path d="M205 2.2v199.2s135.2 0 158-5.8c17.8-4.8 31.8-18.8 36.6-36.6 5.8-22.8 5.8-56.6 5.8-56.6s0-33.8-5.8-56.6c-4.8-17.8-18.8-31.8-36.6-36.6C340.2 2.2 205 2.2 205 2.2z" fill="#747BFF"/>
  </g>
</svg> 